<svg xmlns="http://www.w3.org/2000/svg" viewBox="0 0 512 512" fill="none">
  <rect width="512" height="512" rx="128" fill="#0F9D58"/>
  <rect x="76" y="96" width="360" height="320" rx="24" fill="#0B8043"/>
  <rect x="96" y="116" width="320" height="280" rx="16" fill="#FFFFFF"/>
  <path d="M96 176H416M96 236H416M96 296H416M96 356H416" stroke="#E0E0E0" stroke-width="4"/>
  <path d="M176 116V396M256 116V396M336 116V396" stroke="#E0E0E0" stroke-width="4"/>
  <rect x="96" y="116" width="320" height="60" rx="16" fill="#0F9D58"/>
  <rect x="116" y="134" width="40" height="24" rx="4" fill="#FFFFFF" fill-opacity="0.9"/>
  <rect x="196" y="134" width="40" height="24" rx="4" fill="#FFFFFF" fill-opacity="0.9"/>
  <rect x="276" y="134" width="40" height="24" rx="4" fill="#FFFFFF" fill-opacity="0.9"/>
  <rect x="356" y="134" width="40" height="24" rx="4" fill="#FFFFFF" fill-opacity="0.9"/>
  <circle cx="216" cy="206" r="14" fill="#0F9D58" fill-opacity="0.2"/>
  <circle cx="296" cy="266" r="14" fill="#34A853" fill-opacity="0.2"/>
  <path d="M136 326L216 266L296 296L376 206" stroke="#0F9D58" stroke-width="8" stroke-linecap="round" stroke-linejoin="round"/>
</svg>
